{
	"patcher" : 	{
		"fileversion" : 1,
		"rect" : [ 545.0, 187.0, 640.0, 480.0 ],
		"bglocked" : 0,
		"defrect" : [ 545.0, 187.0, 640.0, 480.0 ],
		"openrect" : [ 0.0, 0.0, 0.0, 0.0 ],
		"openinpresentation" : 1,
		"default_fontsize" : 12.0,
		"default_fontface" : 0,
		"default_fontname" : "Arial",
		"gridonopen" : 0,
		"gridsize" : [ 15.0, 15.0 ],
		"gridsnaponopen" : 0,
		"toolbarvisible" : 1,
		"boxanimatetime" : 200,
		"imprint" : 0,
		"enablehscroll" : 1,
		"enablevscroll" : 1,
		"devicewidth" : 0.0,
		"boxes" : [ 			{
				"box" : 				{
					"maxclass" : "message",
					"text" : "300.",
					"outlettype" : [ "" ],
					"patching_rect" : [ 268.0, 43.0, 34.0, 18.0 ],
					"id" : "obj-10",
					"fontname" : "Arial",
					"numinlets" : 2,
					"numoutlets" : 1,
					"fontsize" : 12.0
				}

			}
, 			{
				"box" : 				{
					"maxclass" : "newobj",
					"patching_rect" : [ 358.0, 64.0, 100.0, 20.0 ],
					"id" : "obj-6",
					"fontname" : "Arial",
					"numinlets" : 0,
					"numoutlets" : 0,
					"fontsize" : 12.0
				}

			}
, 			{
				"box" : 				{
					"maxclass" : "umenu",
					"hint" : "French Vowels",
					"varname" : "vowel",
					"outlettype" : [ "int", "", "" ],
					"presentation_rect" : [ 52.0, 19.0, 37.0, 23.0 ],
					"items" : [ "a", ",", "e", ",", "i", ",", "o", ",", "u" ],
					"types" : [  ],
					"patching_rect" : [ 27.0, 200.0, 67.0, 23.0 ],
					"presentation" : 1,
					"id" : "obj-53",
					"fontname" : "Arial",
					"rounded" : 0,
					"textcolor" : [ 0.0, 0.0, 0.0, 1.0 ],
					"arrow" : 0,
					"numinlets" : 1,
					"bgcolor" : [ 0.745098, 0.745098, 0.941176, 1.0 ],
					"ignoreclick" : 1,
					"numoutlets" : 3,
					"arrowlink" : 0,
					"fontsize" : 14.0,
					"arrowframe" : 0
				}

			}
, 			{
				"box" : 				{
					"maxclass" : "newobj",
					"text" : "prepend /vowel",
					"outlettype" : [ "" ],
					"patching_rect" : [ 128.0, 202.0, 92.0, 20.0 ],
					"id" : "obj-5",
					"fontname" : "Arial",
					"numinlets" : 1,
					"numoutlets" : 1,
					"fontsize" : 12.0
				}

			}
, 			{
				"box" : 				{
					"maxclass" : "message",
					"text" : "1",
					"outlettype" : [ "" ],
					"patching_rect" : [ 27.0, 134.0, 32.5, 18.0 ],
					"id" : "obj-4",
					"fontname" : "Arial",
					"numinlets" : 2,
					"numoutlets" : 1,
					"fontsize" : 12.0
				}

			}
, 			{
				"box" : 				{
					"maxclass" : "newobj",
					"text" : "loadbang",
					"outlettype" : [ "bang" ],
					"patching_rect" : [ 53.0, 68.0, 60.0, 20.0 ],
					"id" : "obj-2",
					"fontname" : "Arial",
					"numinlets" : 1,
					"numoutlets" : 1,
					"fontsize" : 12.0
				}

			}
, 			{
				"box" : 				{
					"maxclass" : "inlet",
					"outlettype" : [ "" ],
					"patching_rect" : [ 94.0, 7.0, 25.0, 25.0 ],
					"id" : "obj-1",
					"numinlets" : 0,
					"numoutlets" : 1,
					"comment" : ""
				}

			}
, 			{
				"box" : 				{
					"maxclass" : "comment",
					"text" : "Singing-voice  \"Source-Filter\" Synthesis Adrian Freed . 2006,2010 Copyright. UC Regents All Rights Reserved.",
					"linecount" : 2,
					"patching_rect" : [ 29.0, 374.0, 522.0, 46.0 ],
					"id" : "obj-77",
					"fontname" : "Helvetica",
					"numinlets" : 1,
					"numoutlets" : 0,
					"fontsize" : 20.0
				}

			}
, 			{
				"box" : 				{
					"maxclass" : "outlet",
					"patching_rect" : [ 100.0, 238.0, 15.0, 15.0 ],
					"id" : "obj-8",
					"numinlets" : 1,
					"numoutlets" : 0,
					"comment" : ""
				}

			}
, 			{
				"box" : 				{
					"maxclass" : "newobj",
					"text" : "OSC-route /babbler /babblerate",
					"outlettype" : [ "", "", "" ],
					"patching_rect" : [ 75.0, 45.0, 136.0, 17.0 ],
					"id" : "obj-7",
					"fontname" : "Arial",
					"numinlets" : 1,
					"numoutlets" : 3,
					"fontsize" : 9.0
				}

			}
, 			{
				"box" : 				{
					"maxclass" : "multislider",
					"hint" : "Babble rate",
					"outlettype" : [ "", "" ],
					"presentation_rect" : [ 2.0, 4.0, 147.0, 12.0 ],
					"peakcolor" : [ 0.498039, 0.498039, 0.498039, 1.0 ],
					"candicane3" : [ 0.290196, 0.411765, 0.713726, 1.0 ],
					"contdata" : 1,
					"compatibility" : 1,
					"candicane8" : [ 0.027451, 0.447059, 0.501961, 1.0 ],
					"candicane2" : [ 0.145098, 0.203922, 0.356863, 1.0 ],
					"patching_rect" : [ 159.0, 95.0, 147.0, 12.0 ],
					"presentation" : 1,
					"id" : "obj-17",
					"candicane7" : [ 0.878431, 0.243137, 0.145098, 1.0 ],
					"numinlets" : 1,
					"orientation" : 0,
					"candicane6" : [ 0.733333, 0.035294, 0.788235, 1.0 ],
					"numoutlets" : 2,
					"candicane5" : [ 0.584314, 0.827451, 0.431373, 1.0 ],
					"candicane4" : [ 0.439216, 0.619608, 0.070588, 1.0 ],
					"setminmax" : [ 100.0, 1000.0 ]
				}

			}
, 			{
				"box" : 				{
					"maxclass" : "toggle",
					"outlettype" : [ "int" ],
					"patching_rect" : [ 78.0, 95.0, 15.0, 15.0 ],
					"id" : "obj-28",
					"numinlets" : 1,
					"numoutlets" : 1
				}

			}
, 			{
				"box" : 				{
					"maxclass" : "newobj",
					"text" : "metro 300",
					"outlettype" : [ "bang" ],
					"patching_rect" : [ 78.0, 115.0, 55.0, 17.0 ],
					"id" : "obj-29",
					"fontname" : "Arial",
					"numinlets" : 2,
					"numoutlets" : 1,
					"fontsize" : 9.0
				}

			}
, 			{
				"box" : 				{
					"maxclass" : "newobj",
					"text" : "urn 5",
					"outlettype" : [ "int", "bang" ],
					"patching_rect" : [ 77.0, 138.0, 32.0, 17.0 ],
					"id" : "obj-61",
					"fontname" : "Arial",
					"numinlets" : 2,
					"numoutlets" : 2,
					"fontsize" : 9.0
				}

			}
, 			{
				"box" : 				{
					"maxclass" : "message",
					"text" : "clear, bang",
					"outlettype" : [ "" ],
					"patching_rect" : [ 114.0, 139.0, 58.0, 15.0 ],
					"id" : "obj-62",
					"fontname" : "Arial",
					"numinlets" : 2,
					"numoutlets" : 1,
					"fontsize" : 9.0
				}

			}
, 			{
				"box" : 				{
					"maxclass" : "comment",
					"text" : "the babbler",
					"patching_rect" : [ 15.0, 98.0, 100.0, 17.0 ],
					"id" : "obj-71",
					"fontname" : "Arial",
					"numinlets" : 1,
					"numoutlets" : 0,
					"fontsize" : 9.0
				}

			}
, 			{
				"box" : 				{
					"maxclass" : "comment",
					"text" : "babble rate",
					"patching_rect" : [ 149.0, 80.0, 100.0, 17.0 ],
					"id" : "obj-83",
					"fontname" : "Arial",
					"numinlets" : 1,
					"numoutlets" : 0,
					"fontsize" : 9.0
				}

			}
 ],
		"lines" : [ 			{
				"patchline" : 				{
					"source" : [ "obj-1", 0 ],
					"destination" : [ "obj-7", 0 ],
					"hidden" : 0,
					"midpoints" : [  ]
				}

			}
, 			{
				"patchline" : 				{
					"source" : [ "obj-17", 0 ],
					"destination" : [ "obj-29", 1 ],
					"hidden" : 0,
					"midpoints" : [  ]
				}

			}
, 			{
				"patchline" : 				{
					"source" : [ "obj-61", 1 ],
					"destination" : [ "obj-62", 0 ],
					"hidden" : 0,
					"midpoints" : [  ]
				}

			}
, 			{
				"patchline" : 				{
					"source" : [ "obj-28", 0 ],
					"destination" : [ "obj-29", 0 ],
					"hidden" : 0,
					"midpoints" : [  ]
				}

			}
, 			{
				"patchline" : 				{
					"source" : [ "obj-62", 0 ],
					"destination" : [ "obj-61", 0 ],
					"hidden" : 0,
					"midpoints" : [  ]
				}

			}
, 			{
				"patchline" : 				{
					"source" : [ "obj-29", 0 ],
					"destination" : [ "obj-61", 0 ],
					"hidden" : 0,
					"midpoints" : [  ]
				}

			}
, 			{
				"patchline" : 				{
					"source" : [ "obj-7", 1 ],
					"destination" : [ "obj-17", 0 ],
					"hidden" : 0,
					"midpoints" : [  ]
				}

			}
, 			{
				"patchline" : 				{
					"source" : [ "obj-4", 0 ],
					"destination" : [ "obj-28", 0 ],
					"hidden" : 0,
					"midpoints" : [  ]
				}

			}
, 			{
				"patchline" : 				{
					"source" : [ "obj-2", 0 ],
					"destination" : [ "obj-4", 0 ],
					"hidden" : 0,
					"midpoints" : [  ]
				}

			}
, 			{
				"patchline" : 				{
					"source" : [ "obj-5", 0 ],
					"destination" : [ "obj-8", 0 ],
					"hidden" : 0,
					"midpoints" : [  ]
				}

			}
, 			{
				"patchline" : 				{
					"source" : [ "obj-61", 0 ],
					"destination" : [ "obj-53", 0 ],
					"hidden" : 0,
					"midpoints" : [  ]
				}

			}
, 			{
				"patchline" : 				{
					"source" : [ "obj-53", 1 ],
					"destination" : [ "obj-5", 0 ],
					"hidden" : 0,
					"midpoints" : [  ]
				}

			}
, 			{
				"patchline" : 				{
					"source" : [ "obj-2", 0 ],
					"destination" : [ "obj-10", 0 ],
					"hidden" : 0,
					"midpoints" : [  ]
				}

			}
, 			{
				"patchline" : 				{
					"source" : [ "obj-10", 0 ],
					"destination" : [ "obj-17", 0 ],
					"hidden" : 0,
					"midpoints" : [  ]
				}

			}
 ]
	}

}
