{
	"patcher" : 	{
		"fileversion" : 1,
		"rect" : [ 423.0, 117.0, 1282.0, 699.0 ],
		"bglocked" : 0,
		"defrect" : [ 423.0, 117.0, 1282.0, 699.0 ],
		"openrect" : [ 0.0, 0.0, 0.0, 0.0 ],
		"openinpresentation" : 1,
		"default_fontsize" : 12.0,
		"default_fontface" : 0,
		"default_fontname" : "Arial",
		"gridonopen" : 0,
		"gridsize" : [ 15.0, 15.0 ],
		"gridsnaponopen" : 0,
		"toolbarvisible" : 1,
		"boxanimatetime" : 200,
		"imprint" : 0,
		"enablehscroll" : 1,
		"enablevscroll" : 1,
		"devicewidth" : 0.0,
		"boxes" : [ 			{
				"box" : 				{
					"maxclass" : "newobj",
					"text" : "prepend symbol",
					"fontsize" : 12.0,
					"numinlets" : 1,
					"numoutlets" : 1,
					"patching_rect" : [ 309.0, 171.0, 96.0, 20.0 ],
					"outlettype" : [ "" ],
					"id" : "obj-19",
					"fontname" : "Arial"
				}

			}
, 			{
				"box" : 				{
					"maxclass" : "number",
					"fontsize" : 12.0,
					"numinlets" : 1,
					"numoutlets" : 2,
					"patching_rect" : [ 425.0, 219.0, 50.0, 20.0 ],
					"outlettype" : [ "int", "bang" ],
					"id" : "obj-13",
					"fontname" : "Arial"
				}

			}
, 			{
				"box" : 				{
					"maxclass" : "newobj",
					"fontsize" : 12.0,
					"numinlets" : 0,
					"numoutlets" : 0,
					"patching_rect" : [ 593.0, 135.0, 100.0, 20.0 ],
					"id" : "obj-3",
					"fontname" : "Arial"
				}

			}
, 			{
				"box" : 				{
					"maxclass" : "newobj",
					"text" : "coll",
					"fontsize" : 12.0,
					"numinlets" : 1,
					"numoutlets" : 4,
					"patching_rect" : [ 405.0, 192.0, 59.5, 20.0 ],
					"outlettype" : [ "", "", "", "" ],
					"id" : "obj-2",
					"fontname" : "Arial",
					"coll_data" : 					{
						"count" : 5,
						"data" : [ 							{
								"key" : "a",
								"value" : [ 0 ]
							}
, 							{
								"key" : "e",
								"value" : [ 1 ]
							}
, 							{
								"key" : "i",
								"value" : [ 2 ]
							}
, 							{
								"key" : "o",
								"value" : [ 3 ]
							}
, 							{
								"key" : "u",
								"value" : [ 4 ]
							}
 ]
					}
,
					"saved_object_attributes" : 					{
						"embed" : 1
					}

				}

			}
, 			{
				"box" : 				{
					"maxclass" : "message",
					"text" : "0.005",
					"fontsize" : 12.0,
					"numinlets" : 2,
					"numoutlets" : 1,
					"patching_rect" : [ 791.0, 472.0, 79.5, 18.0 ],
					"outlettype" : [ "" ],
					"id" : "obj-26",
					"fontname" : "Arial"
				}

			}
, 			{
				"box" : 				{
					"maxclass" : "newobj",
					"fontsize" : 12.0,
					"numinlets" : 0,
					"numoutlets" : 0,
					"patching_rect" : [ 743.0, 597.0, 100.0, 20.0 ],
					"id" : "obj-21",
					"fontname" : "Arial"
				}

			}
, 			{
				"box" : 				{
					"maxclass" : "newobj",
					"text" : "prepend rate-scale",
					"fontsize" : 12.0,
					"numinlets" : 1,
					"numoutlets" : 1,
					"patching_rect" : [ 709.0, 522.0, 111.0, 20.0 ],
					"outlettype" : [ "" ],
					"id" : "obj-18",
					"fontname" : "Arial"
				}

			}
, 			{
				"box" : 				{
					"maxclass" : "newobj",
					"text" : "res-transform",
					"fontsize" : 12.0,
					"numinlets" : 2,
					"numoutlets" : 1,
					"patching_rect" : [ 572.0, 531.0, 82.0, 20.0 ],
					"outlettype" : [ "list" ],
					"id" : "obj-10",
					"fontname" : "Arial"
				}

			}
, 			{
				"box" : 				{
					"maxclass" : "newobj",
					"text" : "loadbang",
					"fontsize" : 12.0,
					"numinlets" : 1,
					"numoutlets" : 1,
					"patching_rect" : [ -19.0, 257.0, 60.0, 20.0 ],
					"outlettype" : [ "bang" ],
					"id" : "obj-8",
					"fontname" : "Arial"
				}

			}
, 			{
				"box" : 				{
					"maxclass" : "message",
					"text" : "-0.001",
					"fontsize" : 12.0,
					"numinlets" : 2,
					"numoutlets" : 1,
					"patching_rect" : [ 3.0, 321.0, 51.0, 18.0 ],
					"outlettype" : [ "" ],
					"id" : "obj-6",
					"fontname" : "Arial"
				}

			}
, 			{
				"box" : 				{
					"maxclass" : "newobj",
					"text" : "prepend gain-scale",
					"fontsize" : 12.0,
					"numinlets" : 1,
					"numoutlets" : 1,
					"patching_rect" : [ 10.0, 366.0, 113.0, 20.0 ],
					"outlettype" : [ "" ],
					"id" : "obj-11",
					"fontname" : "Arial"
				}

			}
, 			{
				"box" : 				{
					"maxclass" : "resdisplay",
					"fontsize" : 12.0,
					"presentation_rect" : [ 5.0, 31.0, 161.0, 73.0 ],
					"numinlets" : 1,
					"color" : [ 0.956863, 0.078431, 0.211765, 1.0 ],
					"numoutlets" : 1,
					"freqmax" : 4000.0,
					"patching_rect" : [ 571.0, 566.0, 153.0, 90.0 ],
					"bgcolor" : [ 1.0, 1.0, 1.0, 1.0 ],
					"ignoreclick" : 1,
					"presentation" : 1,
					"outlettype" : [ "" ],
					"id" : "obj-38",
					"fontname" : "Arial",
					"datacolor" : [ 0.047059, 0.231373, 0.964706, 1.0 ],
					"textcolor" : [  ]
				}

			}
, 			{
				"box" : 				{
					"maxclass" : "outlet",
					"numinlets" : 1,
					"numoutlets" : 0,
					"patching_rect" : [ 35.0, 570.0, 15.0, 15.0 ],
					"id" : "obj-5",
					"comment" : ""
				}

			}
, 			{
				"box" : 				{
					"maxclass" : "newobj",
					"text" : "prepend vowel",
					"fontsize" : 12.0,
					"numinlets" : 1,
					"numoutlets" : 1,
					"patching_rect" : [ 548.0, 259.0, 89.0, 20.0 ],
					"outlettype" : [ "" ],
					"id" : "obj-4",
					"fontname" : "Arial"
				}

			}
, 			{
				"box" : 				{
					"maxclass" : "comment",
					"text" : "French Vowel",
					"fontsize" : 9.0,
					"numinlets" : 1,
					"numoutlets" : 0,
					"patching_rect" : [ 175.0, 176.0, 100.0, 17.0 ],
					"id" : "obj-59",
					"fontname" : "Arial"
				}

			}
, 			{
				"box" : 				{
					"maxclass" : "newobj",
					"text" : "loadbang",
					"fontsize" : 12.0,
					"numinlets" : 1,
					"numoutlets" : 1,
					"patching_rect" : [ 238.0, 62.0, 60.0, 20.0 ],
					"outlettype" : [ "bang" ],
					"id" : "obj-42",
					"fontname" : "Arial"
				}

			}
, 			{
				"box" : 				{
					"maxclass" : "inlet",
					"numinlets" : 0,
					"numoutlets" : 1,
					"patching_rect" : [ 49.0, 79.0, 25.0, 25.0 ],
					"outlettype" : [ "" ],
					"id" : "obj-41",
					"comment" : ""
				}

			}
, 			{
				"box" : 				{
					"maxclass" : "button",
					"numinlets" : 1,
					"numoutlets" : 1,
					"patching_rect" : [ 237.0, 38.0, 20.0, 20.0 ],
					"outlettype" : [ "bang" ],
					"id" : "obj-37"
				}

			}
, 			{
				"box" : 				{
					"maxclass" : "message",
					"fontsize" : 12.0,
					"numinlets" : 2,
					"numoutlets" : 1,
					"patching_rect" : [ 90.0, 337.0, 50.0, 18.0 ],
					"outlettype" : [ "" ],
					"id" : "obj-33",
					"fontname" : "Arial"
				}

			}
, 			{
				"box" : 				{
					"maxclass" : "message",
					"text" : "Tenor",
					"fontsize" : 12.0,
					"numinlets" : 2,
					"numoutlets" : 1,
					"patching_rect" : [ 18.0, 339.0, 50.0, 18.0 ],
					"outlettype" : [ "" ],
					"id" : "obj-32",
					"fontname" : "Arial"
				}

			}
, 			{
				"box" : 				{
					"maxclass" : "message",
					"text" : "/vowel i, /range 3",
					"fontsize" : 12.0,
					"numinlets" : 2,
					"numoutlets" : 1,
					"patching_rect" : [ 212.0, 87.0, 124.0, 18.0 ],
					"outlettype" : [ "" ],
					"id" : "obj-29",
					"fontname" : "Arial"
				}

			}
, 			{
				"box" : 				{
					"maxclass" : "umenu",
					"fontsize" : 14.0,
					"presentation_rect" : [ 113.0, 5.0, 55.0, 23.0 ],
					"numinlets" : 1,
					"items" : [ "a", ",", "e", ",", "i", ",", "o", ",", "u" ],
					"numoutlets" : 3,
					"types" : [  ],
					"patching_rect" : [ 163.0, 211.0, 55.0, 23.0 ],
					"presentation" : 1,
					"outlettype" : [ "int", "", "" ],
					"id" : "obj-17",
					"fontname" : "Arial",
					"frozen_box_attributes" : [ "items" ]
				}

			}
, 			{
				"box" : 				{
					"maxclass" : "newobj",
					"text" : "unpack s s",
					"fontsize" : 12.0,
					"numinlets" : 1,
					"numoutlets" : 2,
					"patching_rect" : [ 48.0, 296.0, 68.0, 20.0 ],
					"outlettype" : [ "", "" ],
					"id" : "obj-16",
					"fontname" : "Arial"
				}

			}
, 			{
				"box" : 				{
					"maxclass" : "newobj",
					"text" : "pak tenor a",
					"fontsize" : 12.0,
					"numinlets" : 2,
					"numoutlets" : 1,
					"patching_rect" : [ 46.0, 259.0, 71.0, 20.0 ],
					"outlettype" : [ "" ],
					"id" : "obj-12",
					"fontname" : "Arial"
				}

			}
, 			{
				"box" : 				{
					"maxclass" : "newobj",
					"text" : "OSC-route /range /vowel /sharpness /smoothness",
					"fontsize" : 9.0,
					"numinlets" : 1,
					"numoutlets" : 5,
					"patching_rect" : [ 65.0, 129.0, 210.0, 17.0 ],
					"outlettype" : [ "", "", "", "", "" ],
					"id" : "obj-7",
					"fontname" : "Arial"
				}

			}
, 			{
				"box" : 				{
					"maxclass" : "flonum",
					"htextcolor" : [ 0.870588, 0.870588, 0.870588, 1.0 ],
					"fontsize" : 9.0,
					"numinlets" : 1,
					"triscale" : 0.9,
					"numoutlets" : 2,
					"patching_rect" : [ 250.0, 421.0, 35.0, 17.0 ],
					"bgcolor" : [ 0.866667, 0.866667, 0.866667, 1.0 ],
					"outlettype" : [ "float", "bang" ],
					"id" : "obj-22",
					"fontname" : "Arial"
				}

			}
, 			{
				"box" : 				{
					"maxclass" : "message",
					"text" : "rate-scale $1",
					"fontsize" : 9.0,
					"numinlets" : 2,
					"numoutlets" : 1,
					"patching_rect" : [ 250.0, 439.0, 70.0, 15.0 ],
					"outlettype" : [ "" ],
					"id" : "obj-23",
					"fontname" : "Arial"
				}

			}
, 			{
				"box" : 				{
					"maxclass" : "multislider",
					"contdata" : 1,
					"candicane2" : [ 0.145098, 0.203922, 0.356863, 1.0 ],
					"candicane7" : [ 0.878431, 0.243137, 0.145098, 1.0 ],
					"compatibility" : 1,
					"candicane6" : [ 0.733333, 0.035294, 0.788235, 1.0 ],
					"numinlets" : 1,
					"candicane5" : [ 0.584314, 0.827451, 0.431373, 1.0 ],
					"numoutlets" : 2,
					"candicane4" : [ 0.439216, 0.619608, 0.070588, 1.0 ],
					"patching_rect" : [ 250.0, 401.0, 143.0, 13.0 ],
					"setminmax" : [ 0.0, 3.0 ],
					"peakcolor" : [ 0.498039, 0.498039, 0.498039, 1.0 ],
					"outlettype" : [ "", "" ],
					"candicane3" : [ 0.290196, 0.411765, 0.713726, 1.0 ],
					"id" : "obj-24",
					"candicane8" : [ 0.027451, 0.447059, 0.501961, 1.0 ],
					"orientation" : 0
				}

			}
, 			{
				"box" : 				{
					"maxclass" : "message",
					"text" : "a",
					"fontsize" : 9.0,
					"numinlets" : 2,
					"numoutlets" : 1,
					"patching_rect" : [ 241.0, 217.0, 16.0, 15.0 ],
					"outlettype" : [ "" ],
					"id" : "obj-43",
					"fontname" : "Arial"
				}

			}
, 			{
				"box" : 				{
					"maxclass" : "message",
					"text" : "u",
					"fontsize" : 9.0,
					"numinlets" : 2,
					"numoutlets" : 1,
					"patching_rect" : [ 363.0, 220.0, 16.0, 15.0 ],
					"outlettype" : [ "" ],
					"id" : "obj-44",
					"fontname" : "Arial"
				}

			}
, 			{
				"box" : 				{
					"maxclass" : "message",
					"text" : "e",
					"fontsize" : 9.0,
					"numinlets" : 2,
					"numoutlets" : 1,
					"patching_rect" : [ 249.0, 263.0, 16.0, 15.0 ],
					"outlettype" : [ "" ],
					"id" : "obj-45",
					"fontname" : "Arial"
				}

			}
, 			{
				"box" : 				{
					"maxclass" : "message",
					"text" : "o",
					"fontsize" : 9.0,
					"numinlets" : 2,
					"numoutlets" : 1,
					"patching_rect" : [ 310.0, 245.0, 16.0, 15.0 ],
					"outlettype" : [ "" ],
					"id" : "obj-46",
					"fontname" : "Arial"
				}

			}
, 			{
				"box" : 				{
					"maxclass" : "message",
					"text" : "i",
					"fontsize" : 9.0,
					"numinlets" : 2,
					"numoutlets" : 1,
					"patching_rect" : [ 218.0, 230.0, 16.0, 15.0 ],
					"outlettype" : [ "" ],
					"id" : "obj-47",
					"fontname" : "Arial"
				}

			}
, 			{
				"box" : 				{
					"maxclass" : "newobj",
					"text" : "sprintf %s%s",
					"fontsize" : 9.0,
					"numinlets" : 2,
					"numoutlets" : 1,
					"patching_rect" : [ 44.0, 395.0, 70.0, 17.0 ],
					"outlettype" : [ "" ],
					"id" : "obj-48",
					"fontname" : "Arial"
				}

			}
, 			{
				"box" : 				{
					"maxclass" : "newobj",
					"text" : "coll ircam-vowels 1",
					"fontsize" : 9.0,
					"numinlets" : 1,
					"numoutlets" : 4,
					"patching_rect" : [ 37.0, 440.0, 101.0, 17.0 ],
					"outlettype" : [ "", "", "", "" ],
					"id" : "obj-50",
					"fontname" : "Arial",
					"coll_data" : 					{
						"count" : 25,
						"data" : [ 							{
								"key" : "Sopranoa",
								"value" : [ 800.0, 0.0, 80.0, 1150.0, -6.0, 90.0, 2900.0, -32.0, 120.0, 3900.0, -20.0, 130.0, 4950.0, -50.0, 140.0 ]
							}
, 							{
								"key" : "Sopranoe",
								"value" : [ 350.0, 0.0, 60.0, 2000.0, -20.0, 100.0, 2800.0, -15.0, 120.0, 3600.0, -40.0, 150.0, 4950.0, -56.0, 200.0 ]
							}
, 							{
								"key" : "Sopranoi",
								"value" : [ 270.0, 0.0, 60.0, 2140.0, -12.0, 90.0, 2950.0, -26.0, 100.0, 3900.0, -26.0, 120.0, 4950.0, -44.0, 120.0 ]
							}
, 							{
								"key" : "Sopranoo",
								"value" : [ 450.0, 0.0, 70.0, 800.0, -11.0, 80.0, 2830.0, -22.0, 100.0, 3800.0, -22.0, 130.0, 4950.0, -50.0, 135.0 ]
							}
, 							{
								"key" : "Sopranou",
								"value" : [ 325.0, 0.0, 50.0, 700.0, -16.0, 60.0, 2700.0, -35.0, 170.0, 3800.0, -40.0, 180.0, 4950.0, -60.0, 200.0 ]
							}
, 							{
								"key" : "Altoa",
								"value" : [ 800.0, 0.0, 80.0, 1150.0, -4.0, 90.0, 2800.0, -20.0, 120.0, 3500.0, -36.0, 130.0, 4950.0, -60.0, 140.0 ]
							}
, 							{
								"key" : "Altoe",
								"value" : [ 400.0, 0.0, 60.0, 1600.0, -24.0, 80.0, 2700.0, -20.0, 120.0, 3300.0, -35.0, 150.0, 4950.0, -60.0, 200.0 ]
							}
, 							{
								"key" : "Altoi",
								"value" : [ 350.0, 0.0, 50.0, 1700.0, -20.0, 100.0, 2700.0, -30.0, 120.0, 3700.0, -36.0, 150.0, 4950.0, -60.0, 200.0 ]
							}
, 							{
								"key" : "Altoo",
								"value" : [ 450.0, 0.0, 70.0, 800.0, -9.0, 80.0, 2830.0, -16.0, 100.0, 3500.0, -28.0, 130.0, 4950.0, -35.0, 135.0 ]
							}
, 							{
								"key" : "Altou",
								"value" : [ 325.0, 0.0, 50.0, 700.0, -12.0, 60.0, 2530.0, -30.0, 170.0, 3500.0, -40.0, 180.0, 4950.0, -64.0, 200.0 ]
							}
, 							{
								"key" : "Contratenora",
								"value" : [ 660.0, 0.0, 80.0, 1120.0, -6.0, 90.0, 2750.0, -23.0, 120.0, 3000.0, -24.0, 130.0, 3350.0, -38.0, 140.0 ]
							}
, 							{
								"key" : "Contratenore",
								"value" : [ 440.0, 0.0, 70.0, 1800.0, -14.0, 80.0, 2700.0, -18.0, 100.0, 3000.0, -20.0, 120.0, 3300.0, -20.0, 120.0 ]
							}
, 							{
								"key" : "Contratenori",
								"value" : [ 270.0, 0.0, 40.0, 1850.0, -24.0, 90.0, 2900.0, -24.0, 100.0, 3350.0, -36.0, 120.0, 3590.0, -36.0, 120.0 ]
							}
, 							{
								"key" : "Contratenoro",
								"value" : [ 430.0, 0.0, 40.0, 820.0, -10.0, 80.0, 2700.0, -26.0, 100.0, 3000.0, -22.0, 120.0, 3300.0, -34.0, 120.0 ]
							}
, 							{
								"key" : "Contratenoru",
								"value" : [ 370.0, 0.0, 40.0, 630.0, -20.0, 80.0, 2750.0, -23.0, 100.0, 3000.0, -30.0, 120.0, 3400.0, -34.0, 120.0 ]
							}
, 							{
								"key" : "Tenora",
								"value" : [ 650.0, 0.0, 80.0, 1080.0, -6.0, 90.0, 2650.0, -7.0, 120.0, 2900.0, -8.0, 130.0, 3250.0, -22.0, 140.0 ]
							}
, 							{
								"key" : "Tenore",
								"value" : [ 400.0, 0.0, 70.0, 1700.0, -14.0, 80.0, 2600.0, -12.0, 100.0, 3200.0, -14.0, 120.0, 3580.0, -20.0, 120.0 ]
							}
, 							{
								"key" : "Tenori",
								"value" : [ 290.0, 0.0, 40.0, 1870.0, -15.0, 90.0, 2800.0, -18.0, 100.0, 3250.0, -20.0, 120.0, 3540.0, -30.0, 120.0 ]
							}
, 							{
								"key" : "Tenoro",
								"value" : [ 400.0, 0.0, 40.0, 800.0, -10.0, 80.0, 2600.0, -12.0, 100.0, 2800.0, -12.0, 120.0, 3000.0, -26.0, 120.0 ]
							}
, 							{
								"key" : "Tenoru",
								"value" : [ 350.0, 0.0, 40.0, 600.0, -20.0, 60.0, 2700.0, -17.0, 100.0, 2900.0, -14.0, 120.0, 3300.0, -26.0, 120.0 ]
							}
, 							{
								"key" : "Bassa",
								"value" : [ 600.0, 0.0, 60.0, 1040.0, -7.0, 70.0, 2250.0, -9.0, 110.0, 2450.0, -9.0, 120.0, 2750.0, -20.0, 130.0 ]
							}
, 							{
								"key" : "Basse",
								"value" : [ 400.0, 0.0, 40.0, 1620.0, -12.0, 80.0, 2400.0, -9.0, 100.0, 2800.0, -12.0, 120.0, 3100.0, -18.0, 120.0 ]
							}
, 							{
								"key" : "Bassi",
								"value" : [ 250.0, 0.0, 60.0, 1750.0, -30.0, 90.0, 2600.0, -16.0, 100.0, 3050.0, -22.0, 120.0, 3340.0, -28.0, 120.0 ]
							}
, 							{
								"key" : "Basso",
								"value" : [ 400.0, 0.0, 40.0, 750.0, -11.0, 80.0, 2400.0, -21.0, 100.0, 2600.0, -20.0, 120.0, 2900.0, -40.0, 120.0 ]
							}
, 							{
								"key" : "Bassu",
								"value" : [ 350.0, 0.0, 40.0, 600.0, -20.0, 80.0, 2400.0, -32.0, 100.0, 2675.0, -28.0, 120.0, 2950.0, -36.0, 120.0 ]
							}
 ]
					}
,
					"saved_object_attributes" : 					{
						"embed" : 1
					}

				}

			}
, 			{
				"box" : 				{
					"maxclass" : "newobj",
					"text" : "prepend symbol",
					"fontsize" : 9.0,
					"numinlets" : 1,
					"numoutlets" : 1,
					"patching_rect" : [ 37.0, 417.0, 78.0, 17.0 ],
					"outlettype" : [ "" ],
					"id" : "obj-51",
					"fontname" : "Arial"
				}

			}
, 			{
				"box" : 				{
					"maxclass" : "newobj",
					"text" : "res-transform",
					"fontsize" : 9.0,
					"numinlets" : 2,
					"numoutlets" : 1,
					"patching_rect" : [ 37.0, 482.0, 74.0, 17.0 ],
					"outlettype" : [ "list" ],
					"id" : "obj-53",
					"fontname" : "Arial"
				}

			}
, 			{
				"box" : 				{
					"maxclass" : "newobj",
					"text" : "prepend formant-form",
					"fontsize" : 9.0,
					"numinlets" : 1,
					"numoutlets" : 1,
					"patching_rect" : [ 37.0, 461.0, 109.0, 17.0 ],
					"outlettype" : [ "" ],
					"id" : "obj-54",
					"fontname" : "Arial"
				}

			}
, 			{
				"box" : 				{
					"maxclass" : "umenu",
					"fontsize" : 14.0,
					"presentation_rect" : [ 2.0, 5.0, 104.0, 23.0 ],
					"numinlets" : 1,
					"items" : [ "Soprano", ",", "Alto", ",", "Contratenor", ",", "Tenor", ",", "Bass" ],
					"numoutlets" : 3,
					"types" : [  ],
					"patching_rect" : [ 15.0, 208.0, 104.0, 23.0 ],
					"presentation" : 1,
					"outlettype" : [ "int", "", "" ],
					"id" : "obj-58",
					"fontname" : "Arial",
					"frozen_box_attributes" : [ "items" ]
				}

			}
, 			{
				"box" : 				{
					"maxclass" : "comment",
					"text" : "Vocal Range",
					"fontsize" : 9.0,
					"numinlets" : 1,
					"numoutlets" : 0,
					"patching_rect" : [ 36.0, 181.0, 100.0, 17.0 ],
					"id" : "obj-65",
					"fontname" : "Arial"
				}

			}
, 			{
				"box" : 				{
					"maxclass" : "comment",
					"text" : "Collection of French vowels",
					"linecount" : 2,
					"fontsize" : 9.0,
					"numinlets" : 1,
					"numoutlets" : 0,
					"patching_rect" : [ 138.0, 429.0, 100.0, 27.0 ],
					"id" : "obj-67",
					"fontname" : "Arial"
				}

			}
, 			{
				"box" : 				{
					"maxclass" : "comment",
					"text" : "Tell res-transform to interpret the vowel data in an ancient format",
					"linecount" : 3,
					"fontsize" : 9.0,
					"numinlets" : 1,
					"numoutlets" : 0,
					"patching_rect" : [ 161.0, 462.0, 138.0, 38.0 ],
					"id" : "obj-68",
					"fontname" : "Arial"
				}

			}
, 			{
				"box" : 				{
					"maxclass" : "comment",
					"text" : "formant sharpness",
					"fontsize" : 9.0,
					"numinlets" : 1,
					"numoutlets" : 0,
					"patching_rect" : [ 160.0, 400.0, 100.0, 17.0 ],
					"id" : "obj-78",
					"fontname" : "Arial"
				}

			}
 ],
		"lines" : [ 			{
				"patchline" : 				{
					"source" : [ "obj-17", 1 ],
					"destination" : [ "obj-12", 1 ],
					"hidden" : 0,
					"midpoints" : [  ]
				}

			}
, 			{
				"patchline" : 				{
					"source" : [ "obj-7", 1 ],
					"destination" : [ "obj-19", 0 ],
					"hidden" : 0,
					"midpoints" : [  ]
				}

			}
, 			{
				"patchline" : 				{
					"source" : [ "obj-19", 0 ],
					"destination" : [ "obj-2", 0 ],
					"hidden" : 0,
					"midpoints" : [  ]
				}

			}
, 			{
				"patchline" : 				{
					"source" : [ "obj-2", 0 ],
					"destination" : [ "obj-17", 0 ],
					"hidden" : 0,
					"midpoints" : [  ]
				}

			}
, 			{
				"patchline" : 				{
					"source" : [ "obj-2", 0 ],
					"destination" : [ "obj-13", 0 ],
					"hidden" : 0,
					"midpoints" : [  ]
				}

			}
, 			{
				"patchline" : 				{
					"source" : [ "obj-22", 0 ],
					"destination" : [ "obj-23", 0 ],
					"hidden" : 0,
					"midpoints" : [  ]
				}

			}
, 			{
				"patchline" : 				{
					"source" : [ "obj-24", 0 ],
					"destination" : [ "obj-22", 0 ],
					"hidden" : 0,
					"midpoints" : [  ]
				}

			}
, 			{
				"patchline" : 				{
					"source" : [ "obj-54", 0 ],
					"destination" : [ "obj-53", 0 ],
					"hidden" : 0,
					"midpoints" : [  ]
				}

			}
, 			{
				"patchline" : 				{
					"source" : [ "obj-23", 0 ],
					"destination" : [ "obj-53", 0 ],
					"hidden" : 0,
					"midpoints" : [  ]
				}

			}
, 			{
				"patchline" : 				{
					"source" : [ "obj-50", 0 ],
					"destination" : [ "obj-54", 0 ],
					"hidden" : 0,
					"midpoints" : [  ]
				}

			}
, 			{
				"patchline" : 				{
					"source" : [ "obj-51", 0 ],
					"destination" : [ "obj-50", 0 ],
					"hidden" : 0,
					"midpoints" : [  ]
				}

			}
, 			{
				"patchline" : 				{
					"source" : [ "obj-48", 0 ],
					"destination" : [ "obj-51", 0 ],
					"hidden" : 0,
					"midpoints" : [  ]
				}

			}
, 			{
				"patchline" : 				{
					"source" : [ "obj-12", 0 ],
					"destination" : [ "obj-16", 0 ],
					"hidden" : 0,
					"midpoints" : [  ]
				}

			}
, 			{
				"patchline" : 				{
					"source" : [ "obj-16", 1 ],
					"destination" : [ "obj-48", 1 ],
					"hidden" : 0,
					"midpoints" : [  ]
				}

			}
, 			{
				"patchline" : 				{
					"source" : [ "obj-16", 0 ],
					"destination" : [ "obj-48", 0 ],
					"hidden" : 0,
					"midpoints" : [  ]
				}

			}
, 			{
				"patchline" : 				{
					"source" : [ "obj-58", 1 ],
					"destination" : [ "obj-12", 0 ],
					"hidden" : 0,
					"midpoints" : [  ]
				}

			}
, 			{
				"patchline" : 				{
					"source" : [ "obj-7", 2 ],
					"destination" : [ "obj-24", 0 ],
					"hidden" : 0,
					"midpoints" : [  ]
				}

			}
, 			{
				"patchline" : 				{
					"source" : [ "obj-7", 0 ],
					"destination" : [ "obj-58", 0 ],
					"hidden" : 0,
					"midpoints" : [  ]
				}

			}
, 			{
				"patchline" : 				{
					"source" : [ "obj-29", 0 ],
					"destination" : [ "obj-7", 0 ],
					"hidden" : 0,
					"midpoints" : [  ]
				}

			}
, 			{
				"patchline" : 				{
					"source" : [ "obj-16", 0 ],
					"destination" : [ "obj-32", 1 ],
					"hidden" : 0,
					"midpoints" : [  ]
				}

			}
, 			{
				"patchline" : 				{
					"source" : [ "obj-16", 1 ],
					"destination" : [ "obj-33", 1 ],
					"hidden" : 0,
					"midpoints" : [  ]
				}

			}
, 			{
				"patchline" : 				{
					"source" : [ "obj-41", 0 ],
					"destination" : [ "obj-7", 0 ],
					"hidden" : 0,
					"midpoints" : [  ]
				}

			}
, 			{
				"patchline" : 				{
					"source" : [ "obj-37", 0 ],
					"destination" : [ "obj-42", 0 ],
					"hidden" : 0,
					"midpoints" : [  ]
				}

			}
, 			{
				"patchline" : 				{
					"source" : [ "obj-42", 0 ],
					"destination" : [ "obj-29", 0 ],
					"hidden" : 0,
					"midpoints" : [  ]
				}

			}
, 			{
				"patchline" : 				{
					"source" : [ "obj-44", 0 ],
					"destination" : [ "obj-4", 0 ],
					"hidden" : 0,
					"midpoints" : [  ]
				}

			}
, 			{
				"patchline" : 				{
					"source" : [ "obj-45", 0 ],
					"destination" : [ "obj-4", 0 ],
					"hidden" : 0,
					"midpoints" : [  ]
				}

			}
, 			{
				"patchline" : 				{
					"source" : [ "obj-46", 0 ],
					"destination" : [ "obj-4", 0 ],
					"hidden" : 0,
					"midpoints" : [  ]
				}

			}
, 			{
				"patchline" : 				{
					"source" : [ "obj-47", 0 ],
					"destination" : [ "obj-4", 0 ],
					"hidden" : 0,
					"midpoints" : [  ]
				}

			}
, 			{
				"patchline" : 				{
					"source" : [ "obj-43", 0 ],
					"destination" : [ "obj-4", 0 ],
					"hidden" : 0,
					"midpoints" : [  ]
				}

			}
, 			{
				"patchline" : 				{
					"source" : [ "obj-53", 0 ],
					"destination" : [ "obj-5", 0 ],
					"hidden" : 0,
					"midpoints" : [  ]
				}

			}
, 			{
				"patchline" : 				{
					"source" : [ "obj-6", 0 ],
					"destination" : [ "obj-11", 0 ],
					"hidden" : 0,
					"midpoints" : [  ]
				}

			}
, 			{
				"patchline" : 				{
					"source" : [ "obj-8", 0 ],
					"destination" : [ "obj-6", 0 ],
					"hidden" : 0,
					"midpoints" : [  ]
				}

			}
, 			{
				"patchline" : 				{
					"source" : [ "obj-11", 0 ],
					"destination" : [ "obj-53", 0 ],
					"hidden" : 0,
					"midpoints" : [  ]
				}

			}
, 			{
				"patchline" : 				{
					"source" : [ "obj-18", 0 ],
					"destination" : [ "obj-10", 0 ],
					"hidden" : 0,
					"midpoints" : [  ]
				}

			}
, 			{
				"patchline" : 				{
					"source" : [ "obj-26", 0 ],
					"destination" : [ "obj-18", 0 ],
					"hidden" : 0,
					"midpoints" : [  ]
				}

			}
, 			{
				"patchline" : 				{
					"source" : [ "obj-53", 0 ],
					"destination" : [ "obj-10", 0 ],
					"hidden" : 0,
					"midpoints" : [  ]
				}

			}
, 			{
				"patchline" : 				{
					"source" : [ "obj-8", 0 ],
					"destination" : [ "obj-26", 0 ],
					"hidden" : 0,
					"midpoints" : [  ]
				}

			}
, 			{
				"patchline" : 				{
					"source" : [ "obj-10", 0 ],
					"destination" : [ "obj-38", 0 ],
					"hidden" : 0,
					"midpoints" : [  ]
				}

			}
 ]
	}

}
