{
	"patcher" : 	{
		"fileversion" : 1,
		"rect" : [ 92.0, 58.0, 1348.0, 742.0 ],
		"bglocked" : 0,
		"defrect" : [ 92.0, 58.0, 1348.0, 742.0 ],
		"openrect" : [ 0.0, 0.0, 0.0, 0.0 ],
		"openinpresentation" : 1,
		"default_fontsize" : 12.0,
		"default_fontface" : 0,
		"default_fontname" : "Arial",
		"gridonopen" : 0,
		"gridsize" : [ 15.0, 15.0 ],
		"gridsnaponopen" : 0,
		"toolbarvisible" : 1,
		"boxanimatetime" : 200,
		"imprint" : 0,
		"enablehscroll" : 1,
		"enablevscroll" : 1,
		"devicewidth" : 0.0,
		"boxes" : [ 			{
				"box" : 				{
					"maxclass" : "message",
					"text" : "gain-scale $1",
					"fontsize" : 12.0,
					"numoutlets" : 1,
					"outlettype" : [ "" ],
					"patching_rect" : [ 521.0, 374.0, 82.0, 18.0 ],
					"id" : "obj-45",
					"fontname" : "Arial",
					"numinlets" : 2
				}

			}
, 			{
				"box" : 				{
					"maxclass" : "newobj",
					"text" : "res-transform",
					"fontsize" : 12.0,
					"numoutlets" : 1,
					"outlettype" : [ "list" ],
					"patching_rect" : [ 478.0, 398.0, 82.0, 20.0 ],
					"id" : "obj-46",
					"fontname" : "Arial",
					"numinlets" : 2
				}

			}
, 			{
				"box" : 				{
					"maxclass" : "message",
					"text" : "gain-scale $1",
					"fontsize" : 12.0,
					"numoutlets" : 1,
					"outlettype" : [ "" ],
					"patching_rect" : [ 1016.0, 561.0, 82.0, 18.0 ],
					"id" : "obj-43",
					"fontname" : "Arial",
					"numinlets" : 2
				}

			}
, 			{
				"box" : 				{
					"maxclass" : "newobj",
					"text" : "res-transform",
					"fontsize" : 12.0,
					"numoutlets" : 1,
					"outlettype" : [ "list" ],
					"patching_rect" : [ 973.0, 585.0, 82.0, 20.0 ],
					"id" : "obj-44",
					"fontname" : "Arial",
					"numinlets" : 2
				}

			}
, 			{
				"box" : 				{
					"maxclass" : "message",
					"text" : "gain-scale $1",
					"fontsize" : 12.0,
					"numoutlets" : 1,
					"outlettype" : [ "" ],
					"patching_rect" : [ 546.0, 619.0, 82.0, 18.0 ],
					"id" : "obj-41",
					"fontname" : "Arial",
					"numinlets" : 2
				}

			}
, 			{
				"box" : 				{
					"maxclass" : "newobj",
					"text" : "res-transform",
					"fontsize" : 12.0,
					"numoutlets" : 1,
					"outlettype" : [ "list" ],
					"patching_rect" : [ 488.0, 656.0, 82.0, 20.0 ],
					"id" : "obj-42",
					"fontname" : "Arial",
					"numinlets" : 2
				}

			}
, 			{
				"box" : 				{
					"maxclass" : "message",
					"text" : "bang, zlclear",
					"fontsize" : 12.0,
					"numoutlets" : 1,
					"outlettype" : [ "" ],
					"patching_rect" : [ 733.0, 610.0, 79.0, 18.0 ],
					"id" : "obj-40",
					"fontname" : "Arial",
					"numinlets" : 2
				}

			}
, 			{
				"box" : 				{
					"maxclass" : "newobj",
					"text" : "t b f",
					"fontsize" : 12.0,
					"numoutlets" : 2,
					"outlettype" : [ "bang", "float" ],
					"patching_rect" : [ 38.0, 209.0, 32.5, 20.0 ],
					"id" : "obj-33",
					"fontname" : "Arial",
					"numinlets" : 1
				}

			}
, 			{
				"box" : 				{
					"maxclass" : "newobj",
					"text" : "t b b",
					"fontsize" : 12.0,
					"numoutlets" : 2,
					"outlettype" : [ "bang", "bang" ],
					"patching_rect" : [ 120.0, 123.0, 34.0, 20.0 ],
					"id" : "obj-38",
					"fontname" : "Arial",
					"numinlets" : 1
				}

			}
, 			{
				"box" : 				{
					"maxclass" : "resdisplay",
					"fontsize" : 12.0,
					"presentation_rect" : [ 1.0, 1.0, 599.0, 136.0 ],
					"numoutlets" : 1,
					"outlettype" : [ "" ],
					"datacolor" : [ 0.0, 0.0, 0.0, 1.0 ],
					"bgcolor" : [ 1.0, 1.0, 1.0, 0.0 ],
					"patching_rect" : [ 687.0, 654.0, 164.0, 62.0 ],
					"presentation" : 1,
					"id" : "obj-37",
					"ampmin_log" : -96.0,
					"fontname" : "Arial",
					"color" : [ 1.0, 1.0, 1.0, 1.0 ],
					"textcolor" : [  ],
					"freqmax" : 10000.0,
					"ignoreclick" : 1,
					"numinlets" : 1
				}

			}
, 			{
				"box" : 				{
					"maxclass" : "newobj",
					"text" : "zl 2048 group",
					"fontsize" : 12.0,
					"numoutlets" : 2,
					"outlettype" : [ "", "" ],
					"patching_rect" : [ 924.0, 624.0, 83.0, 20.0 ],
					"id" : "obj-36",
					"fontname" : "Arial",
					"numinlets" : 2
				}

			}
, 			{
				"box" : 				{
					"maxclass" : "message",
					"text" : "gain-scale $1",
					"fontsize" : 12.0,
					"numoutlets" : 1,
					"outlettype" : [ "" ],
					"patching_rect" : [ 1072.0, 362.0, 82.0, 18.0 ],
					"id" : "obj-29",
					"fontname" : "Arial",
					"numinlets" : 2
				}

			}
, 			{
				"box" : 				{
					"maxclass" : "newobj",
					"text" : "res-transform",
					"fontsize" : 12.0,
					"numoutlets" : 1,
					"outlettype" : [ "list" ],
					"patching_rect" : [ 1074.0, 401.0, 82.0, 20.0 ],
					"id" : "obj-17",
					"fontname" : "Arial",
					"numinlets" : 2
				}

			}
, 			{
				"box" : 				{
					"maxclass" : "outlet",
					"numoutlets" : 0,
					"patching_rect" : [ 367.0, 587.0, 25.0, 25.0 ],
					"id" : "obj-30",
					"numinlets" : 1,
					"comment" : ""
				}

			}
, 			{
				"box" : 				{
					"maxclass" : "message",
					"text" : "stop",
					"fontsize" : 12.0,
					"numoutlets" : 1,
					"outlettype" : [ "" ],
					"patching_rect" : [ 45.0, 118.0, 33.0, 18.0 ],
					"id" : "obj-91",
					"fontname" : "Arial",
					"numinlets" : 2
				}

			}
, 			{
				"box" : 				{
					"maxclass" : "newobj",
					"text" : "delay 20",
					"fontsize" : 12.0,
					"numoutlets" : 1,
					"outlettype" : [ "bang" ],
					"patching_rect" : [ 31.0, 141.0, 56.0, 20.0 ],
					"id" : "obj-89",
					"fontname" : "Arial",
					"numinlets" : 2
				}

			}
, 			{
				"box" : 				{
					"maxclass" : "message",
					"text" : "8.",
					"fontsize" : 12.0,
					"numoutlets" : 1,
					"outlettype" : [ "" ],
					"patching_rect" : [ 21.0, 172.0, 32.5, 18.0 ],
					"id" : "obj-80",
					"fontname" : "Arial",
					"numinlets" : 2
				}

			}
, 			{
				"box" : 				{
					"maxclass" : "message",
					"text" : "1.",
					"fontsize" : 12.0,
					"numoutlets" : 1,
					"outlettype" : [ "" ],
					"patching_rect" : [ 63.0, 172.0, 32.5, 18.0 ],
					"id" : "obj-79",
					"fontname" : "Arial",
					"numinlets" : 2
				}

			}
, 			{
				"box" : 				{
					"maxclass" : "newobj",
					"text" : "select 1 0",
					"fontsize" : 12.0,
					"numoutlets" : 3,
					"outlettype" : [ "bang", "bang", "" ],
					"patching_rect" : [ 27.0, 77.0, 62.0, 20.0 ],
					"id" : "obj-28",
					"fontname" : "Arial",
					"numinlets" : 1
				}

			}
, 			{
				"box" : 				{
					"maxclass" : "newobj",
					"text" : "route bang int",
					"fontsize" : 12.0,
					"numoutlets" : 3,
					"outlettype" : [ "", "", "" ],
					"patching_rect" : [ 87.0, 34.0, 84.0, 20.0 ],
					"id" : "obj-27",
					"fontname" : "Arial",
					"numinlets" : 1
				}

			}
, 			{
				"box" : 				{
					"maxclass" : "message",
					"text" : "rate-scale $1",
					"fontsize" : 12.0,
					"numoutlets" : 1,
					"outlettype" : [ "" ],
					"patching_rect" : [ 499.0, 254.0, 80.0, 18.0 ],
					"id" : "obj-26",
					"fontname" : "Arial",
					"numinlets" : 2
				}

			}
, 			{
				"box" : 				{
					"maxclass" : "comment",
					"text" : "bang",
					"fontsize" : 12.0,
					"numoutlets" : 0,
					"patching_rect" : [ 112.0, 3.0, 50.0, 20.0 ],
					"id" : "obj-23",
					"fontname" : "Arial",
					"numinlets" : 1
				}

			}
, 			{
				"box" : 				{
					"maxclass" : "comment",
					"text" : "audio in",
					"fontsize" : 12.0,
					"numoutlets" : 0,
					"patching_rect" : [ 486.0, 17.0, 150.0, 20.0 ],
					"id" : "obj-20",
					"fontname" : "Arial",
					"numinlets" : 1
				}

			}
, 			{
				"box" : 				{
					"maxclass" : "comment",
					"text" : "weights",
					"fontsize" : 12.0,
					"numoutlets" : 0,
					"patching_rect" : [ 258.0, 14.0, 63.0, 20.0 ],
					"id" : "obj-18",
					"fontname" : "Arial",
					"numinlets" : 1
				}

			}
, 			{
				"box" : 				{
					"maxclass" : "inlet",
					"numoutlets" : 1,
					"outlettype" : [ "" ],
					"patching_rect" : [ 212.0, 15.0, 25.0, 25.0 ],
					"id" : "obj-16",
					"numinlets" : 0,
					"comment" : ""
				}

			}
, 			{
				"box" : 				{
					"maxclass" : "inlet",
					"numoutlets" : 1,
					"outlettype" : [ "" ],
					"patching_rect" : [ 413.0, 16.0, 25.0, 25.0 ],
					"id" : "obj-15",
					"numinlets" : 0,
					"comment" : ""
				}

			}
, 			{
				"box" : 				{
					"maxclass" : "inlet",
					"numoutlets" : 1,
					"outlettype" : [ "" ],
					"patching_rect" : [ 55.0, 0.0, 25.0, 25.0 ],
					"id" : "obj-14",
					"numinlets" : 0,
					"comment" : ""
				}

			}
, 			{
				"box" : 				{
					"maxclass" : "newobj",
					"text" : "float",
					"fontsize" : 12.0,
					"numoutlets" : 1,
					"outlettype" : [ "float" ],
					"patching_rect" : [ 362.0, 264.0, 33.0, 20.0 ],
					"id" : "obj-13",
					"fontname" : "Arial",
					"numinlets" : 2
				}

			}
, 			{
				"box" : 				{
					"maxclass" : "newobj",
					"text" : "float",
					"fontsize" : 12.0,
					"numoutlets" : 1,
					"outlettype" : [ "float" ],
					"patching_rect" : [ 409.0, 167.0, 33.0, 20.0 ],
					"id" : "obj-12",
					"fontname" : "Arial",
					"numinlets" : 2
				}

			}
, 			{
				"box" : 				{
					"maxclass" : "newobj",
					"text" : "float",
					"fontsize" : 12.0,
					"numoutlets" : 1,
					"outlettype" : [ "float" ],
					"patching_rect" : [ 417.0, 112.0, 33.0, 20.0 ],
					"id" : "obj-11",
					"fontname" : "Arial",
					"numinlets" : 2
				}

			}
, 			{
				"box" : 				{
					"maxclass" : "newobj",
					"text" : "float",
					"fontsize" : 12.0,
					"numoutlets" : 1,
					"outlettype" : [ "float" ],
					"patching_rect" : [ 334.0, 117.0, 33.0, 20.0 ],
					"id" : "obj-10",
					"fontname" : "Arial",
					"numinlets" : 2
				}

			}
, 			{
				"box" : 				{
					"maxclass" : "newobj",
					"text" : "unpack f f f f",
					"fontsize" : 12.0,
					"numoutlets" : 4,
					"outlettype" : [ "float", "float", "float", "float" ],
					"patching_rect" : [ 262.0, 41.0, 76.0, 20.0 ],
					"id" : "obj-8",
					"fontname" : "Arial",
					"numinlets" : 1
				}

			}
, 			{
				"box" : 				{
					"maxclass" : "bpatcher",
					"args" : [ "@name", "Tubular", "Bell", "@resonances", 55.033997, 0.007688, 0.22365, 57.453999, 0.001074, 0.275675, 64.974991, 0.000344, 1.205618, 67.099998, 0.000343, 1.19569, 74.752991, 0.00055, 0.422953, 80.709999, 0.000554, 4.355912, 89.092995, 0.000561, 2.821024, 99.332001, 0.000362, 0.778361, 106.003998, 0.001197, 0.982313, 130.531998, 0.000953, 1.696837, 137.360001, 0.000392, 2.690805, 148.563004, 0.000366, 2.265277, 157.608002, 0.000513, 3.611323, 165.25, 0.001761, 3.820774, 174.370987, 0.002966, 1.162609, 181.643982, 0.000576, 1.001477, 186.369995, 0.000834, 1.611794, 191.063965, 0.003771, 2.196068, 206.147995, 0.000571, 2.013352, 210.743973, 0.001398, 0.995539, 214.289993, 0.002871, 2.079766, 240.306, 0.001051, 13.982533, 287.570984, 0.023614, 5.610853, 293.052002, 0.02252, 1.44152, 371.285004, 0.000913, 1.621439, 571.859009, 0.051998, 0.820176, 935.881897, 0.172225, 0.288869, 1367.75, 0.039492, 4.170716, 1370.703125, 0.071488, 3.365682, 1376.578003, 0.088138, 1.652226, 1557.43396, 0.146852, 3.653641, 1879.739502, 0.081108, 1.590494, 1881.360962, 0.050548, 2.569069, 1886.347168, 0.100205, 3.356101, 2238.96875, 0.004383, 3.748203, 2424.685547, 0.003074, 7.335242, 2443.835938, 0.012659, 1.345984, 3051.962891, 0.044948, 6.99262, 3126.86792, 0.017701, 6.850494, 3702.765625, 0.016628, 2.782289, 3989.600098, 0.002295, 16.584969, 4378.521973, 0.018616, 9.424932, 4545.341797, 0.004602, 75.61393, 4705.530762, 0.008206, 5.640258, 4712.428223, 0.013113, 89.576363, 5085.185547, 0.004341, 24.564522, 5191.1875, 0.001106, 29.310265, 5804.791504, 0.002701, 34.254292, 6206.34375, 0.000584, 16.682171, 6238.568848, 0.000975, 18.588646, 6315.720215, 0.004216, 6.86815, 6530.737793, 0.001939, 15.251987, 6662.9375, 0.000525, 3.668626, 7931.773926, 0.004198, 8.956491, 8014.837891, 0.00192, 26.619677, 8839.701172, 0.000511, 46.7752, 9483.171875, 0.002546, 33.862347, 9563.246094, 0.001693, 8.390629, 9952.574219, 0.000427, 47.439774, 11552.598633, 0.000343, 11.630795, 11593.709961, 0.000969, 29.637774, 11601.259766, 0.000865, 40.935738, 12221.638672, 0.000526, 26.091555, 12282.230469, 0.004292, 74.684525, 12834.739258, 0.000656, 14.306746, 12969.5, 0.000366, 20.928431, 12993.40918, 0.000931, 56.3918 ],
					"numoutlets" : 3,
					"outlettype" : [ "signal", "", "list" ],
					"patching_rect" : [ 9.0, 291.0, 466.0, 87.0 ],
					"id" : "obj-6",
					"name" : "v.sdif.resonance.maxpat",
					"numinlets" : 2
				}

			}
, 			{
				"box" : 				{
					"maxclass" : "bpatcher",
					"args" : [ "@name", "wood", "@resonances", "filter-form", 52.498001, -48.39835, 1.68582, 263.015991, -6.1228, 1.95763, 612.632019, -18.98892, 12.18928, 860.439026, -54.036919, 0.9344, 1048.307007, -11.47423, 5.90865, 1242.274048, -57.52631, 2.08433, 1316.116943, -50.686722, 1.99321, 1526.047974, -59.30801, 2.30146, 1604.515991, -56.300652, 2.96873, 1678.390991, -60.096951, 2.42107, 1818.202026, -61.830921, 1.8111, 1889.118042, -61.025848, 2.4822, 2106.913086, -63.132511, 2.04012, 2115.191895, -54.908001, 3.04476, 2295.173096, 0.0, 29.450701, 2319.490967, -55.0495, 4.03071, 2952.894043, -56.394241, 4.13222, 3044.23291, -55.64967, 4.6561, 3113.246094, -61.66412, 2.67562 ],
					"numoutlets" : 3,
					"outlettype" : [ "signal", "", "list" ],
					"patching_rect" : [ 555.0, 440.0, 466.0, 87.0 ],
					"id" : "obj-2",
					"name" : "v.sdif.resonance.maxpat",
					"numinlets" : 2
				}

			}
, 			{
				"box" : 				{
					"maxclass" : "bpatcher",
					"args" : [ "rPianoA0.res.sdif", 1 ],
					"numoutlets" : 3,
					"outlettype" : [ "signal", "", "list" ],
					"patching_rect" : [ 668.0, 241.0, 466.0, 87.0 ],
					"id" : "obj-1",
					"name" : "v.sdif.resonance.maxpat",
					"numinlets" : 2
				}

			}
, 			{
				"box" : 				{
					"maxclass" : "comment",
					"text" : "adrian@adrianfreed.com 2011",
					"linecount" : 2,
					"fontsize" : 12.0,
					"numoutlets" : 0,
					"patching_rect" : [ 767.0, 179.0, 150.0, 34.0 ],
					"id" : "obj-3",
					"fontname" : "Arial",
					"numinlets" : 1
				}

			}
, 			{
				"box" : 				{
					"maxclass" : "button",
					"numoutlets" : 1,
					"outlettype" : [ "bang" ],
					"patching_rect" : [ 162.0, 130.0, 20.0, 20.0 ],
					"id" : "obj-9",
					"numinlets" : 1
				}

			}
, 			{
				"box" : 				{
					"maxclass" : "bpatcher",
					"args" : [ "cbass.res.sdif", 1 ],
					"numoutlets" : 3,
					"outlettype" : [ "signal", "", "list" ],
					"patching_rect" : [ 16.0, 437.0, 466.0, 87.0 ],
					"id" : "obj-5",
					"name" : "v.sdif.resonance.maxpat",
					"numinlets" : 2
				}

			}
 ],
		"lines" : [ 			{
				"patchline" : 				{
					"source" : [ "obj-12", 0 ],
					"destination" : [ "obj-29", 0 ],
					"hidden" : 0,
					"midpoints" : [  ]
				}

			}
, 			{
				"patchline" : 				{
					"source" : [ "obj-29", 0 ],
					"destination" : [ "obj-17", 0 ],
					"hidden" : 0,
					"midpoints" : [  ]
				}

			}
, 			{
				"patchline" : 				{
					"source" : [ "obj-38", 1 ],
					"destination" : [ "obj-9", 0 ],
					"hidden" : 0,
					"midpoints" : [  ]
				}

			}
, 			{
				"patchline" : 				{
					"source" : [ "obj-28", 0 ],
					"destination" : [ "obj-38", 0 ],
					"hidden" : 0,
					"midpoints" : [  ]
				}

			}
, 			{
				"patchline" : 				{
					"source" : [ "obj-36", 0 ],
					"destination" : [ "obj-37", 0 ],
					"hidden" : 0,
					"midpoints" : [  ]
				}

			}
, 			{
				"patchline" : 				{
					"source" : [ "obj-8", 3 ],
					"destination" : [ "obj-13", 1 ],
					"hidden" : 0,
					"midpoints" : [  ]
				}

			}
, 			{
				"patchline" : 				{
					"source" : [ "obj-8", 2 ],
					"destination" : [ "obj-12", 1 ],
					"hidden" : 0,
					"midpoints" : [  ]
				}

			}
, 			{
				"patchline" : 				{
					"source" : [ "obj-8", 1 ],
					"destination" : [ "obj-11", 1 ],
					"hidden" : 0,
					"midpoints" : [  ]
				}

			}
, 			{
				"patchline" : 				{
					"source" : [ "obj-8", 0 ],
					"destination" : [ "obj-10", 1 ],
					"hidden" : 0,
					"midpoints" : [  ]
				}

			}
, 			{
				"patchline" : 				{
					"source" : [ "obj-9", 0 ],
					"destination" : [ "obj-13", 0 ],
					"hidden" : 0,
					"midpoints" : [  ]
				}

			}
, 			{
				"patchline" : 				{
					"source" : [ "obj-9", 0 ],
					"destination" : [ "obj-12", 0 ],
					"hidden" : 0,
					"midpoints" : [  ]
				}

			}
, 			{
				"patchline" : 				{
					"source" : [ "obj-9", 0 ],
					"destination" : [ "obj-11", 0 ],
					"hidden" : 0,
					"midpoints" : [  ]
				}

			}
, 			{
				"patchline" : 				{
					"source" : [ "obj-9", 0 ],
					"destination" : [ "obj-10", 0 ],
					"hidden" : 0,
					"midpoints" : [  ]
				}

			}
, 			{
				"patchline" : 				{
					"source" : [ "obj-10", 0 ],
					"destination" : [ "obj-5", 0 ],
					"hidden" : 0,
					"midpoints" : [  ]
				}

			}
, 			{
				"patchline" : 				{
					"source" : [ "obj-11", 0 ],
					"destination" : [ "obj-6", 0 ],
					"hidden" : 0,
					"midpoints" : [  ]
				}

			}
, 			{
				"patchline" : 				{
					"source" : [ "obj-12", 0 ],
					"destination" : [ "obj-1", 0 ],
					"hidden" : 0,
					"midpoints" : [  ]
				}

			}
, 			{
				"patchline" : 				{
					"source" : [ "obj-13", 0 ],
					"destination" : [ "obj-2", 0 ],
					"hidden" : 0,
					"midpoints" : [  ]
				}

			}
, 			{
				"patchline" : 				{
					"source" : [ "obj-15", 0 ],
					"destination" : [ "obj-5", 0 ],
					"hidden" : 0,
					"midpoints" : [  ]
				}

			}
, 			{
				"patchline" : 				{
					"source" : [ "obj-15", 0 ],
					"destination" : [ "obj-6", 0 ],
					"hidden" : 0,
					"midpoints" : [  ]
				}

			}
, 			{
				"patchline" : 				{
					"source" : [ "obj-15", 0 ],
					"destination" : [ "obj-1", 0 ],
					"hidden" : 0,
					"midpoints" : [  ]
				}

			}
, 			{
				"patchline" : 				{
					"source" : [ "obj-15", 0 ],
					"destination" : [ "obj-2", 0 ],
					"hidden" : 0,
					"midpoints" : [  ]
				}

			}
, 			{
				"patchline" : 				{
					"source" : [ "obj-16", 0 ],
					"destination" : [ "obj-8", 0 ],
					"hidden" : 0,
					"midpoints" : [  ]
				}

			}
, 			{
				"patchline" : 				{
					"source" : [ "obj-26", 0 ],
					"destination" : [ "obj-5", 1 ],
					"hidden" : 0,
					"midpoints" : [  ]
				}

			}
, 			{
				"patchline" : 				{
					"source" : [ "obj-26", 0 ],
					"destination" : [ "obj-6", 1 ],
					"hidden" : 0,
					"midpoints" : [  ]
				}

			}
, 			{
				"patchline" : 				{
					"source" : [ "obj-26", 0 ],
					"destination" : [ "obj-1", 1 ],
					"hidden" : 0,
					"midpoints" : [  ]
				}

			}
, 			{
				"patchline" : 				{
					"source" : [ "obj-26", 0 ],
					"destination" : [ "obj-2", 1 ],
					"hidden" : 0,
					"midpoints" : [  ]
				}

			}
, 			{
				"patchline" : 				{
					"source" : [ "obj-14", 0 ],
					"destination" : [ "obj-27", 0 ],
					"hidden" : 0,
					"midpoints" : [  ]
				}

			}
, 			{
				"patchline" : 				{
					"source" : [ "obj-27", 0 ],
					"destination" : [ "obj-9", 0 ],
					"hidden" : 0,
					"midpoints" : [  ]
				}

			}
, 			{
				"patchline" : 				{
					"source" : [ "obj-27", 1 ],
					"destination" : [ "obj-28", 0 ],
					"hidden" : 0,
					"midpoints" : [  ]
				}

			}
, 			{
				"patchline" : 				{
					"source" : [ "obj-89", 0 ],
					"destination" : [ "obj-80", 0 ],
					"hidden" : 0,
					"midpoints" : [  ]
				}

			}
, 			{
				"patchline" : 				{
					"source" : [ "obj-91", 0 ],
					"destination" : [ "obj-89", 0 ],
					"hidden" : 0,
					"midpoints" : [  ]
				}

			}
, 			{
				"patchline" : 				{
					"source" : [ "obj-28", 1 ],
					"destination" : [ "obj-91", 0 ],
					"hidden" : 0,
					"midpoints" : [  ]
				}

			}
, 			{
				"patchline" : 				{
					"source" : [ "obj-28", 1 ],
					"destination" : [ "obj-79", 0 ],
					"hidden" : 0,
					"midpoints" : [  ]
				}

			}
, 			{
				"patchline" : 				{
					"source" : [ "obj-27", 0 ],
					"destination" : [ "obj-79", 0 ],
					"hidden" : 0,
					"midpoints" : [  ]
				}

			}
, 			{
				"patchline" : 				{
					"source" : [ "obj-28", 0 ],
					"destination" : [ "obj-89", 0 ],
					"hidden" : 0,
					"midpoints" : [  ]
				}

			}
, 			{
				"patchline" : 				{
					"source" : [ "obj-2", 0 ],
					"destination" : [ "obj-30", 0 ],
					"hidden" : 0,
					"midpoints" : [  ]
				}

			}
, 			{
				"patchline" : 				{
					"source" : [ "obj-1", 0 ],
					"destination" : [ "obj-30", 0 ],
					"hidden" : 0,
					"midpoints" : [  ]
				}

			}
, 			{
				"patchline" : 				{
					"source" : [ "obj-6", 0 ],
					"destination" : [ "obj-30", 0 ],
					"hidden" : 0,
					"midpoints" : [  ]
				}

			}
, 			{
				"patchline" : 				{
					"source" : [ "obj-5", 0 ],
					"destination" : [ "obj-30", 0 ],
					"hidden" : 0,
					"midpoints" : [  ]
				}

			}
, 			{
				"patchline" : 				{
					"source" : [ "obj-1", 2 ],
					"destination" : [ "obj-17", 0 ],
					"hidden" : 0,
					"midpoints" : [  ]
				}

			}
, 			{
				"patchline" : 				{
					"source" : [ "obj-17", 0 ],
					"destination" : [ "obj-36", 0 ],
					"hidden" : 0,
					"midpoints" : [  ]
				}

			}
, 			{
				"patchline" : 				{
					"source" : [ "obj-80", 0 ],
					"destination" : [ "obj-33", 0 ],
					"hidden" : 0,
					"midpoints" : [  ]
				}

			}
, 			{
				"patchline" : 				{
					"source" : [ "obj-79", 0 ],
					"destination" : [ "obj-33", 0 ],
					"hidden" : 0,
					"midpoints" : [  ]
				}

			}
, 			{
				"patchline" : 				{
					"source" : [ "obj-33", 1 ],
					"destination" : [ "obj-26", 0 ],
					"hidden" : 0,
					"midpoints" : [  ]
				}

			}
, 			{
				"patchline" : 				{
					"source" : [ "obj-33", 0 ],
					"destination" : [ "obj-40", 0 ],
					"hidden" : 0,
					"midpoints" : [  ]
				}

			}
, 			{
				"patchline" : 				{
					"source" : [ "obj-38", 0 ],
					"destination" : [ "obj-40", 0 ],
					"hidden" : 0,
					"midpoints" : [  ]
				}

			}
, 			{
				"patchline" : 				{
					"source" : [ "obj-40", 0 ],
					"destination" : [ "obj-36", 0 ],
					"hidden" : 0,
					"midpoints" : [  ]
				}

			}
, 			{
				"patchline" : 				{
					"source" : [ "obj-41", 0 ],
					"destination" : [ "obj-42", 0 ],
					"hidden" : 0,
					"midpoints" : [  ]
				}

			}
, 			{
				"patchline" : 				{
					"source" : [ "obj-10", 0 ],
					"destination" : [ "obj-41", 0 ],
					"hidden" : 0,
					"midpoints" : [  ]
				}

			}
, 			{
				"patchline" : 				{
					"source" : [ "obj-5", 2 ],
					"destination" : [ "obj-42", 0 ],
					"hidden" : 0,
					"midpoints" : [  ]
				}

			}
, 			{
				"patchline" : 				{
					"source" : [ "obj-42", 0 ],
					"destination" : [ "obj-36", 0 ],
					"hidden" : 0,
					"midpoints" : [  ]
				}

			}
, 			{
				"patchline" : 				{
					"source" : [ "obj-43", 0 ],
					"destination" : [ "obj-44", 0 ],
					"hidden" : 0,
					"midpoints" : [  ]
				}

			}
, 			{
				"patchline" : 				{
					"source" : [ "obj-2", 2 ],
					"destination" : [ "obj-44", 0 ],
					"hidden" : 0,
					"midpoints" : [  ]
				}

			}
, 			{
				"patchline" : 				{
					"source" : [ "obj-13", 0 ],
					"destination" : [ "obj-43", 0 ],
					"hidden" : 0,
					"midpoints" : [  ]
				}

			}
, 			{
				"patchline" : 				{
					"source" : [ "obj-44", 0 ],
					"destination" : [ "obj-36", 0 ],
					"hidden" : 0,
					"midpoints" : [  ]
				}

			}
, 			{
				"patchline" : 				{
					"source" : [ "obj-45", 0 ],
					"destination" : [ "obj-46", 0 ],
					"hidden" : 0,
					"midpoints" : [  ]
				}

			}
, 			{
				"patchline" : 				{
					"source" : [ "obj-46", 0 ],
					"destination" : [ "obj-36", 0 ],
					"hidden" : 0,
					"midpoints" : [  ]
				}

			}
, 			{
				"patchline" : 				{
					"source" : [ "obj-6", 2 ],
					"destination" : [ "obj-46", 0 ],
					"hidden" : 0,
					"midpoints" : [  ]
				}

			}
, 			{
				"patchline" : 				{
					"source" : [ "obj-11", 0 ],
					"destination" : [ "obj-45", 0 ],
					"hidden" : 0,
					"midpoints" : [  ]
				}

			}
 ]
	}

}
